# Blender 3.4.1
# www.blender.org
mtllib shooting-board.mtl
o Cube.002
v 0.030095 -0.112458 -0.021112
v 0.030095 2.152282 -0.021112
v 0.030002 -0.112458 0.053251
v 0.030002 2.152282 0.053251
v -0.044268 -0.112458 -0.021205
v -0.044268 2.152282 -0.021205
v -0.044361 -0.112458 0.053159
v -0.044361 2.152282 0.053159
v 0.030095 2.220454 -0.021112
v 0.030002 2.220454 0.053251
v -0.044361 2.220454 0.053159
v -0.044268 2.220454 -0.021205
v 0.066049 4.118887 -0.013094
v 0.065956 4.118887 0.061269
v -0.008407 4.118887 0.061176
v -0.008315 4.118887 -0.013187
v -0.044361 2.152282 0.053159
v -0.044268 2.152282 -0.021205
v -0.044361 2.220454 0.053159
v -0.044268 2.220454 -0.021205
v -2.284651 2.152282 0.050320
v -2.284558 2.152282 -0.024043
v -2.284651 2.220454 0.050320
v -2.284558 2.220454 -0.024043
v 2.228714 2.152282 -0.018424
v 2.228621 2.152282 0.055939
v 2.228714 2.220454 -0.018424
v 2.228621 2.220454 0.055939
v 2.242615 -0.125764 0.037635
v 2.242615 4.136020 0.037635
v 2.242444 -0.125764 0.174277
v 2.242444 4.136020 0.174277
v -2.289792 -0.125764 0.031988
v -2.289792 4.136020 0.031988
v -2.289962 -0.125764 0.168629
v -2.289962 4.136020 0.168629
v -2.219461 -0.120502 -0.023138
v 0.006310 2.131313 -0.021142
v -2.219554 -0.120502 0.051225
v 0.006217 2.131313 0.053222
v -2.272011 -0.067886 -0.023204
v -0.046240 2.183929 -0.021207
v -2.272104 -0.067886 0.051160
v -0.046333 2.183929 0.053156
v 0.054545 2.179488 -0.021082
v 0.054452 2.179488 0.053282
v 0.001902 2.232104 0.053216
v 0.001995 2.232104 -0.021147
v 2.226849 4.066699 -0.019398
v 2.226757 4.066699 0.054966
v 2.174207 4.119314 0.054900
v 2.174300 4.119314 -0.019463
v -0.046333 2.183929 0.053156
v -0.046240 2.183929 -0.021207
v 0.001902 2.232104 0.053216
v 0.001995 2.232104 -0.021147
v -2.255430 4.082199 0.051150
v -2.255337 4.082199 -0.023213
v -2.207195 4.130374 0.051210
v -2.207102 4.130374 -0.023153
v 2.198848 -0.138847 -0.019242
v 2.198755 -0.138847 0.055121
v 2.247083 -0.090673 -0.019182
v 2.246991 -0.090673 0.055181
vn 0.3026 -0.3015 -0.9042
vn 0.5766 -0.5774 0.5781
vn 0.5781 -0.5774 -0.5766
vn 0.3004 -0.3015 0.9049
vn -0.5781 -0.5774 0.5766
vn -0.3342 0.6667 0.6663
vn -0.5766 -0.5774 -0.5781
vn -0.3325 0.6667 -0.6671
vn 0.5766 0.5774 0.5781
vn 0.3007 0.2941 0.9072
vn 0.3013 0.2966 -0.9062
vn -0.5709 0.5834 -0.5777
vn 0.5842 0.5734 -0.5743
vn -0.3347 0.6710 0.6616
vn -0.3308 0.6729 -0.6616
vn 0.0009 0.7071 -0.7071
vn 0.0004 0.9487 -0.3162
vn 0.5823 0.5713 0.5784
vn -0.5719 0.5812 0.5790
vn -0.5766 -0.5773 -0.5781
vn -0.0004 0.9487 0.3162
vn -0.0009 0.7071 0.7071
vn -0.5766 0.5773 -0.5781
vn -0.5781 0.5774 0.5766
vn 0.5781 -0.5773 -0.5766
vn 0.5781 0.5773 -0.5766
vn 0.5781 0.5774 -0.5766
vn 0.5766 0.5773 0.5781
vn -0.5781 -0.5773 0.5766
vn 0.0028 -0.8168 -0.5769
vn -0.0034 -0.4206 0.9072
vn 0.0014 -0.8167 0.5771
vn -0.8169 -0.0021 0.5767
vn -0.2078 0.7871 0.5808
vn -0.8156 -0.0022 -0.5786
vn -0.0015 -0.4206 -0.9072
vn 0.8152 -0.0074 0.5792
vn 0.4117 -0.0180 0.9111
vn 0.4139 -0.0181 -0.9101
vn 0.0294 0.8132 -0.5812
vn 0.8191 -0.0290 -0.5729
vn -0.2064 0.7870 -0.5814
vn -0.1912 0.8005 0.5680
vn -0.1900 0.8004 -0.5685
vn -0.3715 0.7092 -0.5992
vn 0.2183 0.9226 -0.3180
vn 0.8179 -0.0289 0.5747
vn 0.0281 0.8134 0.5810
vn -0.3730 0.7090 0.5985
vn -0.8180 -0.0306 -0.5744
vn 0.2177 0.9226 0.3185
vn -0.8193 -0.0307 0.5725
vn -0.0298 0.8131 -0.5814
vn -0.0311 0.8129 0.5815
vn -0.0067 -0.8170 -0.5766
vn -0.0080 -0.8171 0.5764
vn 0.8165 -0.0073 -0.5773
vt 0.778496 0.787350
vt 0.962662 0.407200
vt 0.765771 0.386832
vt 0.778496 0.990814
vt 0.962662 0.610668
vt 0.851988 0.787350
vt 0.772452 0.000000
vt 0.765771 0.380151
vt 0.771815 0.787350
vt 0.845307 0.787350
vt 0.771815 0.990814
vt 0.772452 0.203468
vt 0.969341 0.407200
vt 0.778496 0.787350
vt 0.772452 0.386832
vt 0.778496 0.990814
vt 0.969341 0.610668
vt 0.382885 0.407199
vt 0.785177 0.787350
vt 0.765771 0.000000
vt 0.772452 0.380151
vt 0.765771 0.203468
vt 0.785177 0.990814
vt 0.382885 0.407199
vt 0.877599 0.787350
vt 0.962662 0.616791
vt 0.845307 0.984879
vt 0.772452 0.209591
vt 0.870919 0.787378
vt 0.838626 0.984879
vt 0.765771 0.209591
vt 0.884280 0.787378
vt 0.382885 0.407199
vt 0.877599 0.787350
vt 0.969341 0.616791
vt 0.382885 0.407199
vt 0.959431 0.787350
vt 0.765771 0.393513
vt 0.877599 0.957923
vt 0.870919 0.957951
vt 0.772452 0.393513
vt 0.775683 0.380150
vt 0.772452 0.386832
vt 0.769002 0.380150
vt 0.884280 0.957951
vt 0.966110 0.787350
vt 0.765771 0.386832
vt 0.877599 0.957923
vt 0.858669 0.787350
vt 0.805219 0.988621
vt 0.382885 0.407199
vt 0.382885 0.407199
vt 0.811900 0.988621
vt 0.864794 0.988621
vt 0.811900 0.787350
vt 0.382885 0.407199
vt 0.864794 0.787350
vt 0.870918 0.988621
vt 0.382885 0.407199
vt 0.818581 0.787350
vt 0.805219 0.787350
vt 0.771895 0.406875
vt 0.858669 0.988621
vt 0.811900 0.787350
vt 0.771895 0.400194
vt 0.864794 0.787350
vt 0.765771 0.406875
vt 0.864794 0.988621
vt 0.811900 0.988621
vt 0.765771 0.400194
vt 0.818581 0.988621
vt 0.870918 0.787350
vt 0.771895 0.400194
vt 0.851988 0.984878
vt 0.765133 0.610668
vt 0.771895 0.393513
vt 0.969979 0.203468
vt 0.845307 0.984877
vt 0.845307 0.787350
vt 0.765771 0.400194
vt 0.765133 0.616791
vt 0.969979 0.209591
vt 0.765771 0.393513
vt 0.838626 0.787350
vt 0.993893 0.407200
vt 0.765770 0.000000
vt 0.969979 0.000000
vt 0.993893 0.790081
vt 0.382885 0.000000
vt 0.969341 0.814400
vt 0.000000 0.000000
vt 0.982255 0.000000
vt 0.981617 0.407200
vt 0.981617 0.790081
vt 0.382885 0.000000
vt 0.981617 0.814400
vt 0.765770 0.407200
vt 0.982255 0.000000
vt 0.969979 0.407200
vt 0.982255 0.382881
vt 0.382885 0.407200
vt 0.969341 0.407200
vt 0.994531 0.000000
vt 0.000000 0.407200
vt 0.982255 0.407200
vt 0.981617 0.407200
vt 0.382885 0.407200
vt 0.994531 0.382881
vt 0.003582 0.411900
vt 0.791857 0.787354
vt 0.771896 0.400194
vt 0.791857 0.990604
vt 0.798538 0.990368
vt 0.204910 0.612846
vt 0.785177 0.787350
vt 0.761551 0.411900
vt 0.771896 0.393513
vt 0.805219 0.990372
vt 0.785177 0.990601
vt 0.560219 0.612846
vt 0.791857 0.787354
vt 0.008331 0.407200
vt 0.776619 0.400194
vt 0.791857 0.990604
vt 0.209660 0.608150
vt 0.382885 0.407199
vt 0.798538 0.787350
vt 0.756802 0.407200
vt 0.776619 0.393513
vt 0.555470 0.608150
vt 0.798538 0.990601
vt 0.382885 0.407199
vt 0.858669 0.787353
vt 0.209217 0.617203
vt 0.765134 0.787352
vt 0.851988 0.787350
vt 0.555912 0.617203
vt 0.771815 0.787350
vt 0.551163 0.612503
vt 0.825264 0.787350
vt 0.382885 0.407199
vt 0.213966 0.612503
vt 0.818583 0.787353
vt 0.382885 0.407199
vt 0.377815 0.813187
vt 0.818583 0.987237
vt 0.858669 0.982516
vt 0.825264 0.987234
vt 0.387314 0.813187
vt 0.851988 0.982513
vt 0.382565 0.808491
vt 0.825262 0.982513
vt 0.382565 0.808491
vt 0.818581 0.982516
vt 0.825264 0.985817
vt 0.382885 0.407199
vt 0.993893 0.407665
vt 0.831945 0.985821
vt 0.382885 0.407199
vt 0.993893 0.931023
vt 0.382885 0.407199
vt 1.000000 0.407199
vt 0.831945 0.787352
vt 1.000000 0.931488
vt 0.382885 0.407199
vt 0.838626 0.787350
vt 0.993893 0.669342
vt 0.825264 0.787350
vt 0.776245 0.406875
vt 0.776245 0.400194
vt 0.831945 0.787354
vt 0.993893 0.669342
vt 0.831945 0.985821
vt 0.771896 0.406875
vt 1.000000 0.668876
vt 0.771896 0.400194
vt 0.838626 0.985819
vt 1.000000 0.669807
vt 0.000000 0.808834
vt 0.765134 0.994721
vt 0.798538 0.787350
vt 0.771815 0.994718
vt 0.765129 0.808834
vt 0.805219 0.787354
vt 0.765132 0.990372
vt 0.004307 0.813187
vt 0.760822 0.813187
vt 0.771813 0.990370
s 1
usemtl Material.002
f 2/4/1 3/9/2 1/1/3
f 4/12/4 7/20/5 3/7/2
f 8/23/6 5/14/7 7/19/5
f 6/17/8 1/2/3 5/13/7
f 7/21/5 1/3/3 3/8/2
f 4/12/4 28/82/9 10/28/10
f 9/26/11 16/46/12 13/37/13
f 6/17/8 9/26/11 2/5/1
f 4/12/4 11/31/14 8/22/6
f 12/36/15 18/52/16 20/59/17
f 14/41/18 16/47/12 15/43/19
f 10/28/10 15/44/19 11/31/14
f 11/32/14 16/48/12 12/34/15
f 10/29/10 13/39/13 14/40/18
f 18/53/16 21/61/5 22/64/20
f 11/33/14 20/59/17 19/56/21
f 6/18/8 17/51/22 18/52/16
f 8/24/6 19/56/21 17/51/22
f 21/62/5 24/70/23 22/65/20
f 19/57/21 21/63/5 17/49/22
f 20/60/17 23/69/24 19/55/21
f 18/54/16 24/72/23 20/58/17
f 25/73/25 28/83/9 26/76/2
f 2/6/1 26/78/2 4/10/4
f 9/26/11 25/75/25 2/5/1
f 9/27/11 28/84/9 27/79/26
f 37/110/30 40/119/31 39/115/32
f 40/120/31 43/128/33 39/116/32
f 44/131/34 41/121/35 43/127/33
f 41/122/35 38/114/36 37/109/30
f 43/129/33 37/111/30 39/117/32
f 40/120/31 64/187/37 46/137/38
f 45/134/39 52/153/40 49/145/41
f 42/125/42 45/134/39 38/114/36
f 40/120/31 47/139/43 44/130/34
f 48/144/44 54/159/45 56/165/46
f 50/148/47 52/154/40 51/152/48
f 46/137/38 51/151/48 47/139/43
f 48/143/44 51/152/48 52/154/40
f 45/133/39 50/150/47 46/136/38
f 53/155/49 58/171/50 54/158/45
f 47/141/43 56/165/46 55/161/51
f 42/126/42 53/156/49 54/159/45
f 44/132/34 55/161/51 53/156/49
f 57/169/52 60/176/53 58/170/50
f 53/157/49 59/175/54 57/167/52
f 55/163/51 60/177/53 59/173/54
f 54/160/45 60/178/53 56/164/46
f 61/180/55 64/188/37 62/182/56
f 38/113/36 62/184/56 40/118/31
f 38/114/36 63/186/57 61/179/55
f 45/135/39 64/188/37 63/185/57
f 2/4/1 4/11/4 3/9/2
f 4/12/4 8/22/6 7/20/5
f 8/23/6 6/16/8 5/14/7
f 6/17/8 2/5/1 1/2/3
f 7/21/5 5/15/7 1/3/3
f 4/12/4 26/77/2 28/82/9
f 9/26/11 12/35/15 16/46/12
f 6/17/8 12/35/15 9/26/11
f 4/12/4 10/28/10 11/31/14
f 12/36/15 6/18/8 18/52/16
f 14/41/18 13/38/13 16/47/12
f 10/28/10 14/42/18 15/44/19
f 11/32/14 15/45/19 16/48/12
f 10/29/10 9/25/11 13/39/13
f 18/53/16 17/50/22 21/61/5
f 11/33/14 12/36/15 20/59/17
f 6/18/8 8/24/6 17/51/22
f 8/24/6 11/33/14 19/56/21
f 21/62/5 23/67/24 24/70/23
f 19/57/21 23/68/24 21/63/5
f 20/60/17 24/71/23 23/69/24
f 18/54/16 22/66/20 24/72/23
f 25/73/25 27/80/26 28/83/9
f 2/6/1 25/74/25 26/78/2
f 9/26/11 27/81/26 25/75/25
f 9/27/11 10/30/10 28/84/9
f 37/110/30 38/112/36 40/119/31
f 40/120/31 44/130/34 43/128/33
f 44/131/34 42/124/42 41/121/35
f 41/122/35 42/125/42 38/114/36
f 43/129/33 41/123/35 37/111/30
f 40/120/31 62/183/56 64/187/37
f 45/134/39 48/142/44 52/153/40
f 42/125/42 48/142/44 45/134/39
f 40/120/31 46/137/38 47/139/43
f 48/144/44 42/126/42 54/159/45
f 50/148/47 49/146/41 52/154/40
f 46/137/38 50/149/47 51/151/48
f 48/143/44 47/140/43 51/152/48
f 45/133/39 49/147/41 50/150/47
f 53/155/49 57/168/52 58/171/50
f 47/141/43 48/144/44 56/165/46
f 42/126/42 44/132/34 53/156/49
f 44/132/34 47/141/43 55/161/51
f 57/169/52 59/174/54 60/176/53
f 53/157/49 55/162/51 59/175/54
f 55/163/51 56/166/46 60/177/53
f 54/160/45 58/172/50 60/178/53
f 61/180/55 63/185/57 64/188/37
f 38/113/36 61/181/55 62/184/56
f 38/114/36 45/134/39 63/186/57
f 45/135/39 46/138/38 64/188/37
usemtl Material.001
f 30/88/27 31/93/2 29/85/25
f 32/95/28 35/104/29 31/91/2
f 36/108/24 33/98/7 35/103/29
f 34/101/23 29/86/25 33/97/7
f 35/105/29 29/87/25 31/92/2
f 32/96/28 34/102/23 36/106/24
f 30/88/27 32/94/28 31/93/2
f 32/95/28 36/107/24 35/104/29
f 36/108/24 34/100/23 33/98/7
f 34/101/23 30/89/27 29/86/25
f 35/105/29 33/99/7 29/87/25
f 32/96/28 30/90/27 34/102/23
